<svg width="40" height="40" viewBox="0 0 40 40" fill="none" xmlns="http://www.w3.org/2000/svg">
<g id="Frame" clip-path="url(#clip0_41_739)">
<g id="Group">
<path id="Vector" d="M7.30907 32.6366C6.43297 31.7391 5.64852 30.8371 4.95743 29.9354L1.6161 33.2768C1.45967 33.4332 1.34757 33.6283 1.29122 33.8422C1.23488 34.0561 1.23632 34.2811 1.2954 34.4943C1.35441 34.7074 1.46894 34.9011 1.62731 35.0556C1.78568 35.21 1.9822 35.3197 2.1968 35.3733L5.00469 36.0753L5.70665 38.8832C5.77423 39.1536 5.93029 39.3937 6.15002 39.5653C6.36975 39.7368 6.64053 39.83 6.9193 39.83C7.24641 39.83 7.56563 39.7014 7.80321 39.4638L11.1759 36.091C9.77657 34.9896 8.46922 33.8251 7.30899 32.6365L7.30907 32.6366ZM38.3838 33.2767L35.0425 29.9353C34.3514 30.8371 33.567 31.739 32.6909 32.6365C31.5306 33.8251 30.2233 34.9896 28.8239 36.091L32.1966 39.4638C32.353 39.6202 32.5481 39.7324 32.762 39.7887C32.9759 39.8451 33.201 39.8437 33.4141 39.7846C33.6273 39.7256 33.821 39.611 33.9755 39.4526C34.1299 39.2943 34.2396 39.0978 34.2932 38.8832L34.9952 36.0753L37.8031 35.3733C38.0177 35.3197 38.2142 35.21 38.3725 35.0556C38.5309 34.9011 38.6455 34.7074 38.7045 34.4943C38.7635 34.2811 38.765 34.0561 38.7086 33.8422C38.6523 33.6283 38.5402 33.4332 38.3838 33.2768L38.3838 33.2767ZM31.7965 31.7634C35.5278 27.9411 37.5 24.0894 37.5 20.625V4.37504C37.5 4.1929 37.4602 4.01296 37.3833 3.84782C37.3065 3.68267 37.1945 3.53632 37.0552 3.41899C36.9158 3.30167 36.7526 3.21621 36.5767 3.16859C36.4009 3.12097 36.2168 3.11235 36.0374 3.14332C30.5977 4.08262 25.5611 3.11215 20.6405 0.176602C20.4468 0.0610241 20.2255 0 20 0C19.7745 0 19.5532 0.0610241 19.3596 0.176602C15.6445 2.39293 11.8642 3.48902 7.89321 3.48887C6.60469 3.48887 5.2954 3.37332 3.96266 3.14324C3.78316 3.11228 3.59906 3.1209 3.42324 3.16851C3.24742 3.21612 3.08412 3.30157 2.94477 3.41887C2.80547 3.53621 2.69348 3.68258 2.61666 3.84773C2.53983 4.01288 2.50002 4.19282 2.5 4.37496V20.625C2.5 24.0894 4.47219 27.9411 8.20352 31.7633C11.2529 34.8871 15.3503 37.842 19.4452 39.8701C19.6177 39.9556 19.8076 40 20.0001 40C20.1926 40 20.3825 39.9556 20.5549 39.8701C24.6498 37.842 28.7472 34.8872 31.7966 31.7633L31.7965 31.7634ZM20 37.3491C16.3352 35.4551 12.7153 32.8064 9.99243 30.0171C7.71493 27.6839 5 24.1606 5 20.625V5.81738C7.56766 6.11324 10.0976 6.01395 12.54 5.52004C15.0692 5.00855 17.5756 4.05902 20 2.69473C22.4244 4.05902 24.9308 5.00855 27.46 5.52004C29.9024 6.01395 32.4325 6.11324 35 5.81738V20.625C35 24.1607 32.2851 27.6839 30.0076 30.0171C27.2847 32.8064 23.6649 35.4551 20 37.3492V37.3491Z" fill="#2969FF"/>
<path id="Vector_2" d="M20.0001 23.7432L18.6146 26.5506L15.5164 27.0007L17.7583 29.186L17.2289 32.2716H17.229L20.0001 30.8148L22.7712 32.2716L22.2419 29.186L24.4839 27.0007L21.3857 26.5506L20.0001 23.7432Z" fill="#2969FF"/>
<path id="Vector_3" d="M28.125 10.625H26.875C26.1846 10.625 25.625 11.1846 25.625 11.875V16.25C25.625 16.9404 26.1846 17.5 26.875 17.5H28.125C28.8154 17.5 29.375 16.9404 29.375 16.25V11.875C29.375 11.1846 28.8154 10.625 28.125 10.625Z" fill="#2969FF"/>
<path id="Vector_4" d="M20 4.11914C16.1125 6.18781 12.0383 7.23516 7.86836 7.23516C7.33328 7.23516 6.7932 7.21789 6.25 7.18359V20.6246C6.25 23.0549 7.89672 26.0803 10.887 29.1435C13.3782 31.6955 16.6488 34.1273 20 35.9352C23.3512 34.1273 26.6219 31.6955 29.113 29.1435C32.1032 26.0803 33.75 23.0549 33.75 20.6246V7.18359C33.2068 7.21789 32.6667 7.23516 32.1316 7.23516C27.9617 7.23516 23.8875 6.18781 20 4.11914ZM10.625 19.9996H8.125V8.12461H10.625V19.9996ZM18.125 15.6246H15.625C13.9019 15.6246 12.5 14.2227 12.5 12.4996V11.2496C12.5 9.52648 13.9019 8.12461 15.625 8.12461H20.625V10.6246H15.625C15.2804 10.6246 15 10.905 15 11.2496V12.4996C15 12.8442 15.2804 13.1246 15.625 13.1246H18.125C19.8481 13.1246 21.25 14.5265 21.25 16.2496V16.8746C21.25 18.5977 19.8481 19.9996 18.125 19.9996H13.125V17.4996H18.125C18.4696 17.4996 18.75 17.2192 18.75 16.8746V16.2496C18.75 15.905 18.4696 15.6246 18.125 15.6246ZM25.3563 27.8958L23.5849 29.6223L24.0031 32.0602C24.0425 32.29 24.0168 32.5263 23.9289 32.7423C23.841 32.9584 23.6945 33.1455 23.5058 33.2826C23.3171 33.4197 23.0939 33.5013 22.8613 33.5181C22.6287 33.5349 22.396 33.4864 22.1895 33.3779L20.0002 32.2269L17.8108 33.3779C17.6043 33.4864 17.3716 33.535 17.139 33.5182C16.9064 33.5014 16.6831 33.4198 16.4944 33.2827C16.3057 33.1456 16.1591 32.9585 16.0712 32.7424C15.9834 32.5264 15.9577 32.29 15.9971 32.0602L16.4153 29.6223L14.644 27.8958C14.4769 27.733 14.3588 27.5267 14.3029 27.3002C14.247 27.0738 14.2555 26.8362 14.3276 26.6144C14.3997 26.3925 14.5324 26.1953 14.7107 26.0449C14.889 25.8946 15.1059 25.7971 15.3367 25.7636L17.7845 25.4079L18.8793 23.1898C18.9825 22.9806 19.1422 22.8045 19.3403 22.6813C19.5384 22.5582 19.767 22.4929 20.0002 22.4929C20.2335 22.4929 20.4621 22.5582 20.6602 22.6813C20.8583 22.8045 21.018 22.9806 21.1212 23.1898L22.2159 25.4079L24.6638 25.7636C24.8946 25.7972 25.1114 25.8946 25.2897 26.045C25.468 26.1953 25.6007 26.3926 25.6728 26.6144C25.7448 26.8362 25.7534 27.0738 25.6975 27.3002C25.6416 27.5267 25.5235 27.733 25.3565 27.8958H25.3563ZM31.875 16.2496C31.875 18.3173 30.1927 19.9996 28.125 19.9996H26.875C24.8073 19.9996 23.125 18.3173 23.125 16.2496V11.8746C23.125 9.80688 24.8073 8.12461 26.875 8.12461H28.125C30.1927 8.12461 31.875 9.80688 31.875 11.8746V16.2496Z" fill="#2969FF"/>
</g>
</g>
<defs>
<clipPath id="clip0_41_739">
<rect width="40" height="40" fill="white"/>
</clipPath>
</defs>
</svg>
