<svg width="40" height="40" viewBox="0 0 40 40" fill="none" xmlns="http://www.w3.org/2000/svg">
<g id="Frame">
<g id="Group">
<path id="Vector" d="M5.6501 14.6915H12.6077V16.3285C12.6077 16.6656 12.3313 16.9426 11.9942 16.9426H11.1754V29.0526H11.9942C12.3313 29.0526 12.6077 29.3232 12.6077 29.6662V31.3038H5.6501V29.6662C5.6501 29.3232 5.92657 29.0526 6.26421 29.0526H7.08245V16.9426H6.2648C5.92774 16.9426 5.65069 16.6656 5.65069 16.3285L5.6501 14.6915ZM16.5201 14.6915H23.4783V16.3285C23.4783 16.6656 23.2013 16.9426 22.8642 16.9426H22.0454V29.0526H22.8642C23.2013 29.0526 23.4783 29.3232 23.4783 29.6662V31.3038H16.5201V29.6662C16.5201 29.3232 16.7966 29.0526 17.1342 29.0526H17.9524V16.9426H17.1342C16.7972 16.9426 16.5201 16.6656 16.5201 16.3285V14.6915ZM32.916 29.0526H33.7342C34.0713 29.0526 34.3483 29.3232 34.3483 29.6662V31.3038H27.3901V29.6662C27.3901 29.3232 27.6672 29.0526 28.0042 29.0526H28.8236V16.9426H28.0048C27.6677 16.9426 27.3907 16.6656 27.3907 16.3285V14.6915H34.3489V16.3285C34.3489 16.6656 34.0725 16.9426 33.7348 16.9426H32.9166L32.916 29.0526ZM36.4248 33.2474V34.8244H3.57951V33.2479C3.57951 32.8385 3.91069 32.5074 4.3201 32.5074H35.6848C36.0936 32.5074 36.4248 32.8379 36.4248 33.2474ZM38.563 38.0821V36.7674C38.563 36.3579 38.2307 36.0262 37.8213 36.0262H2.17892C1.76951 36.0262 1.43774 36.3579 1.43774 36.7674V38.0821C1.43774 38.4915 1.76951 38.8238 2.17892 38.8238H37.8213C38.2307 38.8238 38.563 38.4915 38.563 38.0821ZM19.2672 1.365L3.3501 10.0574C3.11304 10.1868 2.96539 10.4356 2.96539 10.7056V12.7491C2.96539 13.1568 3.29598 13.4874 3.70421 13.4874H36.3001C36.7083 13.4874 37.0389 13.1568 37.0389 12.7491V10.7056C37.0389 10.435 36.8913 10.1868 36.6542 10.0574L20.7425 1.365C20.5162 1.24148 20.2626 1.17676 20.0048 1.17676C19.747 1.17676 19.4934 1.24148 19.2672 1.365ZM20.0048 10.2144C19.3637 10.2139 18.7491 9.95908 18.2958 9.50578C17.8425 9.05248 17.5876 8.43782 17.5872 7.79676C17.5879 7.15591 17.8429 6.54155 18.2962 6.0885C18.7495 5.63546 19.364 5.38076 20.0048 5.38029C21.3325 5.38029 22.4107 6.46382 22.4107 7.79735C22.4107 9.13029 21.3325 10.2144 20.0048 10.2144Z" fill="#2969FF"/>
</g>
</g>
</svg>
